<?xml version="1.0" encoding="UTF-8" standalone="no"?>
<!-- Created with Inkscape (http://www.inkscape.org/) -->

<svg
   xmlns:dc="http://purl.org/dc/elements/1.1/"
   xmlns:cc="http://creativecommons.org/ns#"
   xmlns:rdf="http://www.w3.org/1999/02/22-rdf-syntax-ns#"
   xmlns:svg="http://www.w3.org/2000/svg"
   xmlns="http://www.w3.org/2000/svg"
   xmlns:sodipodi="http://sodipodi.sourceforge.net/DTD/sodipodi-0.dtd"
   xmlns:inkscape="http://www.inkscape.org/namespaces/inkscape"
   version="1.1"
   id="svg1038"
   width="1280"
   height="1280"
   viewBox="0 0 1280 1280"
   sodipodi:docname="radiationicon.svg"
   inkscape:version="0.92.4 (5da689c313, 2019-01-14)">
  <metadata
     id="metadata1044">
    <rdf:RDF>
      <cc:Work
         rdf:about="">
        <dc:format>image/svg+xml</dc:format>
        <dc:type
           rdf:resource="http://purl.org/dc/dcmitype/StillImage" />
        <dc:title></dc:title>
      </cc:Work>
    </rdf:RDF>
  </metadata>
  <defs
     id="defs1042" />
  <sodipodi:namedview
     pagecolor="#ffffff"
     bordercolor="#666666"
     borderopacity="1"
     objecttolerance="10"
     gridtolerance="10"
     guidetolerance="10"
     inkscape:pageopacity="0"
     inkscape:pageshadow="2"
     inkscape:window-width="1366"
     inkscape:window-height="744"
     id="namedview1040"
     showgrid="false"
     inkscape:zoom="0.36875"
     inkscape:cx="574.88601"
     inkscape:cy="550.26846"
     inkscape:window-x="0"
     inkscape:window-y="0"
     inkscape:window-maximized="1"
     inkscape:current-layer="svg1038" />
  <g
     id="g1624"
     transform="translate(-10.254121,-23.388751)">
    <path
       sodipodi:nodetypes="ccssccc"
       inkscape:connector-curvature="0"
       id="path1591"
       d="M 571.77966,490.80508 391.60532,177.03327 c 0.21056,2.69117 -34.89229,26.27187 -76.38308,58.86241 -56.44308,44.33539 -103.27826,113.9587 -130.13749,165.46025 -38.76589,74.33213 -55.8072,229.74178 -52.96611,227.9661 l 362.37671,0.13973 c 0.49374,-73.91658 39.54243,-107.44666 77.28431,-138.65668 z"
       style="fill:#000000;fill-opacity:1;stroke:#000000;stroke-width:1px;stroke-linecap:butt;stroke-linejoin:miter;stroke-opacity:0" />
    <path
       sodipodi:nodetypes="ccssccc"
       inkscape:connector-curvature="0"
       id="path1591-37"
       d="M 728.72866,492.57119 908.903,178.79939 c 3.02535,2.57132 34.89229,26.27187 76.38308,58.86241 56.44302,44.33539 103.27822,113.9587 130.13742,165.46025 38.7659,74.33212 55.8072,229.74177 52.9661,227.96609 l -362.37663,0.13973 C 805.51923,557.31129 766.47054,523.78121 728.72866,492.57119 Z"
       style="fill:#000000;fill-opacity:1;stroke:#000000;stroke-width:1px;stroke-linecap:butt;stroke-linejoin:miter;stroke-opacity:0" />
    <path
       sodipodi:nodetypes="cccsccc"
       inkscape:connector-curvature="0"
       id="path1614"
       d="m 566.16482,768.96554 c 52.55605,25.63909 106.16776,28.05388 161.2788,-2.51682 l 179.33604,313.25468 c -9.7701,3.066 -12.73903,11.2072 -98.0998,42.5452 -34.37312,12.6192 -83.97938,20.0296 -152.06968,27.243 -156.85613,-9.5735 -187.12049,-30.3413 -270.57782,-69.2792 z"
       style="fill:#000000;fill-opacity:1;stroke:#000000;stroke-width:1px;stroke-linecap:butt;stroke-linejoin:miter;stroke-opacity:0" />
    <ellipse
       ry="103.97969"
       rx="103.89745"
       cy="630.42053"
       cx="650.62048"
       id="path1616"
       style="fill:#000000;fill-opacity:0.09803922;stroke:#000000;stroke-width:1.09778678;stroke-linecap:square;stroke-linejoin:miter;stroke-miterlimit:4;stroke-dasharray:1.09778684, 1.09778684;stroke-dashoffset:0;stroke-opacity:0.04411765;paint-order:stroke fill markers" />
  </g>
</svg>
