<?xml version="1.0" encoding="UTF-8" standalone="no"?>
<svg
   xmlns:dc="http://purl.org/dc/elements/1.1/"
   xmlns:cc="http://creativecommons.org/ns#"
   xmlns:rdf="http://www.w3.org/1999/02/22-rdf-syntax-ns#"
   xmlns:svg="http://www.w3.org/2000/svg"
   xmlns="http://www.w3.org/2000/svg"
   xmlns:sodipodi="http://sodipodi.sourceforge.net/DTD/sodipodi-0.dtd"
   xmlns:inkscape="http://www.inkscape.org/namespaces/inkscape"
   enable-background="new 0 0 38.1 38.1"
   version="1.1"
   viewBox="0 0 38.1 38.1"
   id="svg16"
   sodipodi:docname="survey.svg"
   inkscape:version="0.92.4 (5da689c313, 2019-01-14)">
  <metadata
     id="metadata22">
    <rdf:RDF>
      <cc:Work
         rdf:about="">
        <dc:format>image/svg+xml</dc:format>
        <dc:type
           rdf:resource="http://purl.org/dc/dcmitype/StillImage" />
      </cc:Work>
    </rdf:RDF>
  </metadata>
  <defs
     id="defs20" />
  <sodipodi:namedview
     pagecolor="#ffffff"
     bordercolor="#666666"
     borderopacity="1"
     objecttolerance="10"
     gridtolerance="10"
     guidetolerance="10"
     inkscape:pageopacity="0"
     inkscape:pageshadow="2"
     inkscape:window-width="1366"
     inkscape:window-height="744"
     id="namedview18"
     showgrid="false"
     inkscape:zoom="6.194226"
     inkscape:cx="30.294879"
     inkscape:cy="12.592372"
     inkscape:window-x="0"
     inkscape:window-y="0"
     inkscape:window-maximized="1"
     inkscape:current-layer="g833" />
  <style
     type="text/css"
     id="style2">.st0{fill:#00A5CB;} .st1{fill:#0190B0;} .st2{fill:#FFFFFF;} .st3{fill:#F2F2F2;}</style>
  <g
     id="g833"
     transform="translate(-2.1818964,0.44999924)"
     style="fill:#ffffff;fill-opacity:0.46875;stroke:#000000;stroke-opacity:1">
    <path
       id="path8"
       d="M 25.6,11.8 26.4,11 C 26,10.4 25.3,10 24.5,10 h -1.2 c -0.2,-1 -1,-1.7 -2,-1.7 H 20.1 V 8.2 C 20.1,7.5 19.5,7 18.9,7 H 18.7 C 18,7 17.5,7.6 17.5,8.2 v 0.1 h -1.3 c -1,0 -1.8,0.7 -2,1.7 H 13 c -1.3,0 -2.4,1.1 -2.4,2.4 v 15.4 c 0,1.3 1.1,2.4 2.4,2.4 h 11.5 c 1.3,0 2.4,-1.1 2.4,-2.4 V 18 l -6.3,6.3 -3.8,-3.8 8.6,-8.6 1.5,1.5 V 13 Z m -6.1,12.7 -3.5,1 -0.5,-0.6 1,-3.3 z M 18.7,8.9 C 18.3,8.9 18,8.6 18,8.2 c 0,-0.4 0.3,-0.7 0.7,-0.7 0.4,0 0.7,0.3 0.7,0.7 0,0.5 -0.3,0.7 -0.7,0.7 z"
       class="st2"
       inkscape:connector-curvature="0"
       style="fill:#18050d;fill-opacity:1;stroke:#000600;stroke-opacity:1" />
    <path
       style="fill:#ffffff;fill-opacity:0.46875;stroke:#000000;stroke-opacity:1"
       d="m 26.8,17.3 1.6,-1.6 -3.1,-3 -7.9,7.9 3.1,3.1 z"
       id="polygon10"
       inkscape:connector-curvature="0" />
    <path
       style="fill:#ffffff;fill-opacity:0.46875;stroke:#000000;stroke-opacity:1"
       d="m 16.9,22.5 -0.7,2.3 0.1,0.1 2.3,-0.7 z"
       id="polygon12"
       inkscape:connector-curvature="0" />
    <path
       id="path14"
       d="M 26.2,11.8 28.6,9.4 C 28.9,9.1 29.7,9 30,9.4 l 1.6,1.6 c 0.4,0.4 0.3,1.1 0,1.4 l -2.4,2.4 z"
       class="st2"
       inkscape:connector-curvature="0"
       style="fill:#ffffff;fill-opacity:0.46875;stroke:#000000;stroke-opacity:1" />
  </g>
</svg>
